<svg width="18" height="18" viewBox="0 0 18 18" fill="none" xmlns="http://www.w3.org/2000/svg">
<path d="M9 17.3333C4.39751 17.3333 0.666672 13.6025 0.666672 8.99999C0.666672 5.26832 3.11917 2.10999 6.5 1.04832V2.81832C5.06744 3.40003 3.8815 4.46141 3.14505 5.82092C2.40861 7.18043 2.16741 8.75358 2.46272 10.2713C2.75803 11.789 3.5715 13.1569 4.76398 14.1411C5.95645 15.1253 7.45384 15.6645 9 15.6667C10.3282 15.6666 11.626 15.27 12.7274 14.5277C13.8287 13.7854 14.6833 12.7311 15.1817 11.5H16.9517C15.89 14.8808 12.7317 17.3333 9 17.3333ZM17.2917 9.83332H8.16667V0.708323C8.44084 0.680823 8.71917 0.666656 9 0.666656C13.6025 0.666656 17.3333 4.39749 17.3333 8.99999C17.3333 9.28082 17.3192 9.55916 17.2917 9.83332ZM9.83334 2.38499V8.16666H15.615C15.4295 6.698 14.7607 5.33277 13.714 4.28602C12.6672 3.23927 11.302 2.57048 9.83334 2.38499Z" fill="#BBC3CD"/>
</svg>
