<svg width="18" height="18" viewBox="0 0 18 18" fill="none" xmlns="http://www.w3.org/2000/svg">
<path d="M4.83341 4.16667V1.66667C4.83341 1.44565 4.92121 1.23369 5.07749 1.07741C5.23377 0.921129 5.44573 0.833332 5.66675 0.833332H12.3334C12.5544 0.833332 12.7664 0.921129 12.9227 1.07741C13.079 1.23369 13.1667 1.44565 13.1667 1.66667V4.16667H16.5001C16.7211 4.16667 16.9331 4.25446 17.0893 4.41074C17.2456 4.56702 17.3334 4.77898 17.3334 5V16.6667C17.3334 16.8877 17.2456 17.0996 17.0893 17.2559C16.9331 17.4122 16.7211 17.5 16.5001 17.5H1.50008C1.27907 17.5 1.06711 17.4122 0.910826 17.2559C0.754545 17.0996 0.666748 16.8877 0.666748 16.6667V5C0.666748 4.77898 0.754545 4.56702 0.910826 4.41074C1.06711 4.25446 1.27907 4.16667 1.50008 4.16667H4.83341ZM2.33341 13.3333V15.8333H15.6667V13.3333H2.33341ZM2.33341 11.6667H15.6667V5.83333H2.33341V11.6667ZM6.50008 2.5V4.16667H11.5001V2.5H6.50008ZM8.16675 9.16667H9.83341V10.8333H8.16675V9.16667Z" fill="#929FAF"/>
</svg>
