<svg width="19" height="16" viewBox="0 0 19 16" fill="none" xmlns="http://www.w3.org/2000/svg">
<path d="M17.3334 3.83333H18.1667V12.1667H17.3334V14.6667C17.3334 14.8877 17.2456 15.0996 17.0893 15.2559C16.9331 15.4122 16.7211 15.5 16.5001 15.5H1.50008C1.27907 15.5 1.06711 15.4122 0.910826 15.2559C0.754545 15.0996 0.666748 14.8877 0.666748 14.6667V1.33333C0.666748 1.11232 0.754545 0.900358 0.910826 0.744078C1.06711 0.587797 1.27907 0.5 1.50008 0.5H16.5001C16.7211 0.5 16.9331 0.587797 17.0893 0.744078C17.2456 0.900358 17.3334 1.11232 17.3334 1.33333V3.83333ZM15.6667 12.1667H10.6667C9.56168 12.1667 8.50187 11.7277 7.72047 10.9463C6.93907 10.1649 6.50008 9.10507 6.50008 8C6.50008 6.89493 6.93907 5.83512 7.72047 5.05372C8.50187 4.27232 9.56168 3.83333 10.6667 3.83333H15.6667V2.16667H2.33341V13.8333H15.6667V12.1667ZM16.5001 10.5V5.5H10.6667C10.0037 5.5 9.36782 5.76339 8.89898 6.23223C8.43014 6.70107 8.16675 7.33696 8.16675 8C8.16675 8.66304 8.43014 9.29893 8.89898 9.76777C9.36782 10.2366 10.0037 10.5 10.6667 10.5H16.5001ZM10.6667 7.16667H13.1667V8.83333H10.6667V7.16667Z" fill="#929FAF"/>
</svg>
