<svg width="17" height="18" viewBox="0 0 17 18" fill="none" xmlns="http://www.w3.org/2000/svg">
<path d="M1.16659 17.3333C0.945572 17.3333 0.73361 17.2455 0.57733 17.0892C0.421049 16.933 0.333252 16.721 0.333252 16.5V1.49999C0.333252 1.27898 0.421049 1.06701 0.57733 0.910734C0.73361 0.754454 0.945572 0.666656 1.16659 0.666656H12.8333C13.0543 0.666656 13.2662 0.754454 13.4225 0.910734C13.5788 1.06701 13.6666 1.27898 13.6666 1.49999V3.99999H11.9999V2.33332H1.99992V15.6667H11.9999V14H13.6666V16.5C13.6666 16.721 13.5788 16.933 13.4225 17.0892C13.2662 17.2455 13.0543 17.3333 12.8333 17.3333H1.16659ZM11.9999 12.3333V9.83332H6.16658V8.16666H11.9999V5.66666L16.1666 8.99999L11.9999 12.3333Z" fill="#929FAF"/>
</svg>
